<?xml version="1.0" encoding="UTF-8"?>
<svg width="392px" height="265px" viewBox="0 0 392 265" version="1.1" xmlns="http://www.w3.org/2000/svg" xmlns:xlink="http://www.w3.org/1999/xlink">
    <title>undraw_checklist__re_2w7v</title>
    <g id="Final" stroke="none" stroke-width="1" fill="none" fill-rule="evenodd">
        <g id="Staking" transform="translate(-906.000000, -124.000000)" fill-rule="nonzero">
            <g id="undraw_checklist__re_2w7v" transform="translate(906.000000, 124.000000)">
                <path d="M358.572398,92.7203461 C358.160939,93.0580534 357.74924,93.3810778 357.327987,93.6992078 L253.395174,93.6992078 C252.621052,93.3810778 251.850281,93.0547906 251.082858,92.7203461 C240.110693,87.9501906 229.898117,81.5983138 220.771122,73.8674704 C214.710693,68.7382352 209.135397,63.4425936 205.093513,58.4797649 C199.454591,51.5543186 194.261334,44.0072952 191.845933,35.4080199 C189.43554,26.8087201 190.155598,16.9515831 195.53997,9.82057582 C197.207258,7.62697839 199.256948,5.75180355 201.590596,4.28511308 C201.977637,4.04039766 202.369504,3.80547086 202.771154,3.58522698 C209.228458,-0.0365611941 217.375857,-0.917536697 224.64651,0.956983401 C235.057422,3.64395868 243.709341,11.1469334 249.882448,19.9468998 C256.055551,28.7419719 260.063228,38.8438243 264.011815,48.8331077 C268.019492,31.0031423 280.154947,15.0330142 296.547832,6.91335666 C312.935926,-1.20630089 333.29725,-1.10841472 349.337282,7.68665738 C354.384227,10.4707338 358.943191,14.0579797 362.834865,18.3073065 C363.221686,18.7233227 363.599178,19.1491275 363.971404,19.5798267 C371.795378,28.6294028 376.689864,40.219125 377.0915,52.171026 C377.606064,67.5684907 370.462914,83.0345197 358.572398,92.7203461 Z" id="Path" fill="#F2F2F2"></path>
                <path d="M257.54973,93.6992078 L256.079954,93.6992078 C256.060578,93.3712892 256.035935,93.0482648 256.006515,92.7203461 C255.492756,86.3183744 254.417313,79.9738288 252.792575,73.7597956 C249.064921,59.5730923 242.697734,46.2140206 234.023508,34.3801906 C225.374108,22.508513 214.470147,12.4537325 201.933402,4.78920237 C201.747544,4.68284311 201.621089,4.49688544 201.590596,4.28508861 C201.541625,4.00610369 201.658151,3.72393143 201.889784,3.56059065 C202.121417,3.39724988 202.426587,3.38205492 202.673331,3.5215765 C202.707045,3.5410483 202.739705,3.56228659 202.771174,3.58520251 C209.873958,7.9100807 216.467345,13.0192159 222.427035,18.8162901 C233.08748,29.2050356 241.683428,41.5155077 247.761072,55.0977979 C253.122908,66.9933227 256.407147,79.7178792 257.471543,92.7203461 C257.500929,93.048255 257.525307,93.3761981 257.54973,93.6992078 Z" id="Path" fill="#FFFFFF"></path>
                <path d="M363.971404,19.5798022 C363.960764,19.5852979 363.949136,19.5886253 363.937197,19.5895908 C362.86429,19.7853631 361.786357,19.9909241 360.718236,20.211168 C351.950944,22.0098677 343.368586,24.6132659 335.080407,27.9882239 C326.814064,31.3584168 318.862574,35.4529864 311.31903,40.2239948 C303.765829,44.9925341 296.643159,50.4098347 290.031919,56.4143668 C283.420572,62.4102705 277.355885,68.9814567 271.90947,76.0503319 C267.838807,81.3466736 264.137687,86.9164936 260.832323,92.7203461 C260.64621,93.0433705 260.464879,93.3712892 260.283552,93.6992078 L258.603261,93.6992078 C258.779565,93.3712892 258.960906,93.0433705 259.147009,92.7203461 C263.14587,85.6088594 267.731112,78.8427123 272.855119,72.4921697 C278.521493,65.4639335 284.802615,58.9533043 291.624186,53.0372941 C298.402295,47.154648 305.677012,41.8686746 313.367011,37.2384667 C321.088967,32.5895381 329.20768,28.6325477 337.628111,25.4138177 C345.799521,22.293078 354.235916,19.9146067 362.834865,18.307282 C363.074801,18.2632332 363.309961,18.2191845 363.550156,18.1751357 C364.466116,18.0087194 364.858198,19.3889144 363.971404,19.5798022 Z" id="Path" fill="#FFFFFF"></path>
                <path d="M96.8482542,96.6088399 C99.4618685,91.6799434 99.8932918,85.2602896 96.6434214,80.7247732 C94.7088975,78.0249504 91.688317,76.252692 88.5189414,75.2530638 C85.3495657,74.2534355 82.0061098,73.9596253 78.691437,73.7166963 C75.4102211,73.4762194 72.0706307,73.2837311 68.8653876,74.0251014 C65.6601445,74.7664716 62.5554635,76.5776202 60.9940471,79.4706116 C58.3562894,84.3577988 60.7591524,90.6244516 58.8217625,95.8285207 C57.0438236,100.604284 51.9837528,103.396335 47.0095217,104.523093 C42.0352907,105.649851 36.8434741,105.52994 31.8667787,106.645755 C26.8900834,107.761569 21.8215564,110.527729 20.0121105,115.291673 C18.7036425,118.736625 19.3537489,122.704759 21.0779086,125.961999 C22.8020684,129.21924 25.5023406,131.856288 28.3685995,134.175226 C32.6445596,137.634685 37.6471475,140.597537 43.1413166,140.897407 C48.9304355,141.213403 54.5909147,138.460413 58.7576068,134.433029 C62.9242988,130.405644 65.7609614,125.201208 68.0273312,119.870166 C69.4650856,116.488199 70.8234965,112.848522 73.7047471,110.56473 C75.8219152,108.886579 78.5147209,108.151386 81.1261893,107.456022 L84.0832754,106.668636 C89.4991207,105.253047 94.0895405,101.666314 96.7694596,96.7562613 C96.7958502,96.7072693 96.8221151,96.6581288 96.8482542,96.6088399 Z" id="Path" fill="#2F2E41"></path>
                <polygon id="Path" fill="#FFB8B8" points="73.5274873 258.744927 67.5214932 258.744927 64.663759 235.600722 73.528957 235.600722"></polygon>
                <path d="M63.2309431,257.030275 L74.8146729,257.030275 L74.8146729,264.316368 L55.9374939,264.316368 L55.9374939,264.316368 C55.9374939,262.383976 56.7059068,260.53073 58.073694,259.164322 C59.4414812,257.797915 61.2965993,257.030275 63.2309431,257.030275 L63.2309431,257.030275 Z" id="Path" fill="#2F2E41"></path>
                <polygon id="Path" fill="#FFB8B8" points="123.499866 258.744927 117.493872 258.744927 114.636138 235.600722 123.501336 235.600722"></polygon>
                <path d="M113.203322,257.030275 L124.787052,257.030275 L124.787052,264.316368 L105.909873,264.316368 L105.909873,264.316368 C105.909873,262.383976 106.678286,260.53073 108.046073,259.164322 C109.41386,257.797915 111.268978,257.030275 113.203322,257.030275 L113.203322,257.030275 Z" id="Path" fill="#2F2E41"></path>
                <path d="M85.0734781,240.349706 C84.9896848,240.349706 84.9059532,240.345163 84.8226363,240.336249 L60.3864467,237.720677 C59.7299072,237.650394 59.1353477,237.301397 58.7543411,236.762657 C58.3733344,236.223917 58.2426955,235.54749 58.3957284,234.905818 L80.0320489,152.696082 C80.2387327,151.842797 80.9118612,151.180387 81.7690202,150.986769 L101.840279,145.39741 C102.65982,145.217589 103.51258,145.495168 104.068758,146.122795 C116.973572,160.663893 126.6985,192.898229 134.065414,233.527801 C134.177719,234.147445 134.030363,234.785972 133.657831,235.293954 C133.2853,235.801936 132.720286,236.134789 132.095018,236.21462 L112.072893,238.768416 C110.895736,238.921315 109.796498,238.151075 109.539583,236.993314 L99.7980699,193.606171 C99.6134336,192.783162 98.8775208,192.201455 98.0332997,192.211197 C97.1890787,192.220939 96.4668135,192.819474 96.3012576,193.646525 L87.3207752,238.50335 C87.1110212,239.577066 86.1685532,240.351386 85.0734781,240.349706 L85.0734781,240.349706 Z" id="Path" fill="#2F2E41"></path>
                <ellipse id="Oval" fill="#FFB8B8" cx="81.3565227" cy="95.8765975" rx="12.0330697" ry="12.0209254"></ellipse>
                <path d="M81.020483,152.92725 C79.9802814,152.926331 79.070986,152.226093 78.8053446,151.221397 L71.5663261,124.053307 C70.4844696,120.011257 72.6177237,115.802913 76.5194953,114.282021 C82.3466666,112.009706 87.8983873,111.166745 93.0203651,111.775553 L93.0203651,111.775553 C97.572697,112.317597 103.188524,139.241569 102.816985,139.816 L104.613457,145.199602 C104.819493,145.817056 104.753511,146.492857 104.431924,147.058901 C104.110338,147.624946 103.563369,148.028035 102.927076,148.167902 L81.5197903,152.872448 C81.3558326,152.908727 81.1884144,152.92725 81.020483,152.92725 L81.020483,152.92725 Z" id="Path" fill="#CCCCCC"></path>
                <path d="M87.5081863,180.710687 C87.7169298,179.628269 87.4350234,178.509078 86.7383227,177.654268 C86.0416219,176.799457 85.0016939,176.296834 83.8983629,176.281646 L79.7276877,163.717956 L75.4649899,169.119663 L80.0790523,180.222225 C80.17855,182.117176 81.6810717,183.6383 83.5764445,183.762917 C85.4718174,183.887535 87.1609408,182.576256 87.5081863,180.710677 L87.5081863,180.710687 Z" id="Path" fill="#FFB8B8"></path>
                <path d="M141.129191,150.516607 C140.623759,149.536723 139.709819,148.830817 138.633295,148.588835 C137.556772,148.346854 136.428249,148.593654 135.551392,149.262827 L124.500794,141.959638 L124.490711,148.83803 L134.986091,154.718733 C136.236475,156.147165 138.358712,156.41557 139.925981,155.343494 C141.49325,154.271417 142.01016,152.197728 141.129181,150.516607 L141.129191,150.516607 Z" id="Path" fill="#FFB8B8"></path>
                <path d="M78.7640635,174.906047 C77.7728018,174.906047 76.8931375,174.271424 76.5819657,173.33122 L66.8046296,152.669183 C66.4036322,151.458325 66.1993994,150.19111 66.199694,148.915708 L69.1392461,122.059987 C69.1389983,118.938789 71.571393,116.356994 74.6900282,116.168272 C77.8086634,115.979549 80.5352317,118.249151 80.9121213,121.347557 L76.4147297,152.0011 L83.5915521,170.814821 C83.8252296,171.84494 83.3237229,172.901161 82.3773262,173.372097 L79.7915005,174.66394 C79.4725045,174.823298 79.120721,174.906047 78.7640635,174.906047 Z" id="Path" fill="#CCCCCC"></path>
                <path d="M130.982265,153.229282 C130.62228,153.229282 130.267309,153.14497 129.946073,152.982663 L110.502075,143.171019 C109.362165,142.596413 108.321903,141.842854 107.420935,140.939062 L88.4427286,121.91861 C86.2371573,119.708081 86.1356798,116.164218 88.2111523,113.83135 C90.2866248,111.498482 93.8214578,111.183193 96.2778048,113.111846 L116.83629,135.920649 L133.132675,146.257399 C134.026235,146.82204 134.41743,147.923883 134.0797,148.924797 L133.16109,151.663427 C132.846912,152.598756 131.969817,153.229282 130.982236,153.229282 L130.982265,153.229282 Z" id="Path" fill="#CCCCCC"></path>
                <path d="M67.6694604,89.6615747 C69.7134796,92.3328308 72.6516947,94.1798361 75.9468216,94.8648461 C79.2867946,95.554335 82.7629435,95.0567881 85.7747523,93.4581582 C88.198202,92.1500515 90.1375369,90.1867683 92.0369773,88.2538689 C92.8296764,87.4471841 93.6740136,86.5168788 93.6341337,85.4164083 C93.5723492,83.7114026 91.5205176,82.7792326 89.7594959,82.4073875 C83.9790355,81.2027284 77.9643419,81.8784611 72.5961099,84.3356422 C70.2052745,85.4450889 67.7142592,87.4522888 68.0732421,89.9473534" id="Path" fill="#2F2E41"></path>
                <path d="M383.67127,92.7203461 L147.527282,92.7203461 C142.93015,92.7268483 139.205061,96.4481781 139.198552,101.04067 L139.198552,192.074806 C139.205058,196.667299 142.930149,200.38863 147.527282,200.39513 L383.67127,200.39513 C388.268404,200.388633 391.993497,196.6673 392,192.074806 L392,101.04067 C391.993494,96.448177 388.268403,92.7268456 383.67127,92.7203461 L383.67127,92.7203461 Z M391.020149,192.074806 C391.015215,196.12734 387.727898,199.411338 383.67127,199.416268 L147.527282,199.416268 C143.470654,199.411338 140.183337,196.12734 140.178403,192.074806 L140.178403,101.04067 C140.183337,96.9881362 143.470654,93.7041375 147.527282,93.6992078 L383.67127,93.6992078 C387.727898,93.7041375 391.015215,96.9881362 391.020149,101.04067 L391.020149,192.074806 Z" id="Shape" fill="#3F3D56"></path>
                <path d="M190.402457,174.944726 C174.708917,174.944726 161.98679,162.235439 161.98679,146.557738 C161.98679,130.880037 174.708917,118.17075 190.402457,118.17075 C206.095996,118.17075 218.818123,130.880037 218.818123,146.557738 C218.800395,162.228097 206.088647,174.927017 190.402457,174.944726 L190.402457,174.944726 Z M190.402457,119.149611 C175.250074,119.149611 162.966641,131.420648 162.966641,146.557738 C162.966641,161.694828 175.250074,173.965865 190.402457,173.965865 C205.554839,173.965865 217.838273,161.694828 217.838273,146.557738 C217.82112,131.427751 205.547729,119.166747 190.402457,119.149611 L190.402457,119.149611 Z" id="Shape" fill="#3F3D56"></path>
                <path d="M362.597741,128.448797 L249.425,128.448797 C246.137807,128.450694 243.438756,131.045476 243.310733,134.326861 C243.302573,134.406527 243.300526,134.486617 243.300526,134.566683 C243.305689,137.943528 246.044743,140.679818 249.425,140.684568 L362.597741,140.684568 C365.97997,140.684568 368.721808,137.945497 368.721808,134.566683 C368.721808,131.187868 365.97997,128.448797 362.597741,128.448797 L362.597741,128.448797 Z" id="Path" fill="#48B881"></path>
                <path d="M362.597741,152.430908 L249.425,152.430908 C246.137807,152.432805 243.438756,155.027587 243.310733,158.308972 C243.302573,158.388638 243.300526,158.468728 243.300526,158.548793 C243.305689,161.925639 246.044743,164.661929 249.425,164.666679 L362.597741,164.666679 C365.97997,164.666679 368.721808,161.927608 368.721808,158.548793 C368.721808,155.169979 365.97997,152.430908 362.597741,152.430908 L362.597741,152.430908 Z" id="Path" fill="#48B881"></path>
                <path d="M187.232326,158.960776 C186.439465,158.962247 185.667622,158.706121 185.033228,158.231021 L184.993902,158.201523 L176.712205,151.867167 C175.668767,151.068487 175.131111,149.774371 175.301767,148.4723 C175.472423,147.170228 176.325465,146.058016 177.53956,145.554624 C178.753654,145.051231 180.144352,145.233136 181.18779,146.031815 L186.552046,150.140895 L199.228632,133.625468 C199.822389,132.851847 200.699468,132.345555 201.666906,132.217977 C202.634345,132.0904 203.61289,132.351989 204.387256,132.945193 L204.308442,133.0521 L204.38928,132.94675 C205.999713,134.183214 206.304345,136.488625 205.070246,138.100202 L190.159571,157.526299 C189.46058,158.433638 188.37841,158.963943 187.232326,158.960776 L187.232326,158.960776 Z" id="Path" fill="#48B881"></path>
                <path d="M187.151459,265 L0.489925286,265 C0.219347022,265 1.39245141e-14,264.780874 1.39245141e-14,264.510569 C1.39245141e-14,264.240264 0.219347022,264.021138 0.489925286,264.021138 L187.151459,264.021138 C187.422038,264.021138 187.641385,264.240264 187.641385,264.510569 C187.641385,264.780874 187.422038,265 187.151459,265 Z" id="Path" fill="#3F3D56"></path>
                <path d="M334.745234,70.6712081 C324.510493,69.2649004 314.11669,69.4990097 303.955796,71.3647071 C293.824536,73.2149856 284.043781,76.6311622 274.96556,81.4902822 C269.863749,84.2288976 265.021516,87.4248415 260.498556,91.0387156 C259.759685,91.6283819 260.805656,92.6612865 261.537844,92.0769551 C269.474321,85.7700536 278.370938,80.7740163 287.889524,77.2787495 C297.332799,73.7896352 307.258721,71.7780054 317.31651,71.3149515 C323.007535,71.0538583 328.710538,71.3122962 334.354529,72.0870483 C334.743955,72.1802416 335.139081,71.9561248 335.258529,71.5742961 C335.363883,71.1836407 335.135047,70.7810117 334.745254,70.6712081 L334.745234,70.6712081 Z" id="Path" fill="#FFFFFF"></path>
            </g>
        </g>
    </g>
</svg>